<?xml version="1.0" encoding="utf-8"?>
<!-- Generator: Adobe Illustrator 22.1.0, SVG Export Plug-In . SVG Version: 6.00 Build 0)  -->
<svg version="1.1" id="Слой_1" xmlns="http://www.w3.org/2000/svg" xmlns:xlink="http://www.w3.org/1999/xlink" x="0px" y="0px"
	 viewBox="0 0 247.6 67.7" style="enable-background:new 0 0 247.6 67.7;" xml:space="preserve">
<style type="text/css">
	.st0{fill:#9F2762;}
	.st1{fill:#992B64;}
</style>
<g>
	<path d="M56.2,11.2c2.6-0.5,6.4-0.8,10-0.8c5.6,0,9.2,1,11.7,3.3c2,1.8,3.2,4.6,3.2,7.7c0,5.3-3.4,8.9-7.6,10.3v0.2
		c3.1,1.1,5,4,5.9,8.2c1.3,5.6,2.3,9.5,3.1,11.1h-5.4c-0.7-1.1-1.6-4.6-2.7-9.7c-1.2-5.6-3.4-7.7-8.1-7.9h-4.9v17.5h-5.2V11.2z
		 M61.5,29.6h5.3c5.6,0,9.1-3.1,9.1-7.7c0-5.2-3.8-7.5-9.3-7.6c-2.5,0-4.3,0.2-5.2,0.5L61.5,29.6L61.5,29.6z"/>
	<path d="M109.5,32.1H93.8v14.6h17.5v4.4H88.6V10.6h21.8V15H93.8v12.8h15.7V32.1z"/>
	<path d="M146.3,49.8c-1.9,1-5.8,1.9-10.7,1.9c-11.4,0-20-7.2-20-20.5c0-12.7,8.6-21.2,21.1-21.2c5,0,8.2,1.1,9.6,1.8l-1.2,4.2
		c-2-1-4.8-1.7-8.2-1.7c-9.5,0-15.8,6.1-15.8,16.7c0,9.9,5.7,16.3,15.5,16.3c3.2,0,6.4-0.7,8.5-1.7L146.3,49.8z"/>
	<path d="M158.4,13.9c0.1,1.8-1.3,3.2-3.4,3.2c-1.9,0-3.2-1.4-3.2-3.2c0-1.9,1.4-3.3,3.3-3.3C157.1,10.6,158.4,12,158.4,13.9z
		 M152.5,51.1V22h5.3v29L152.5,51.1L152.5,51.1z"/>
	<path d="M166.5,31.5c0-3.7-0.1-6.7-0.2-9.5h4.7l0.2,5h0.1c2.2-3.5,5.6-5.6,10.3-5.6c7,0,12.3,5.9,12.3,14.8
		c0,10.4-6.4,15.6-13.2,15.6c-3.8,0-7.2-1.7-8.9-4.6h-0.1V63h-5.2L166.5,31.5L166.5,31.5z M171.7,39.3c0,0.8,0.1,1.5,0.2,2.2
		c1,3.7,4.1,6.2,7.9,6.2c5.6,0,8.8-4.6,8.8-11.2c0-5.8-3.1-10.8-8.6-10.8c-3.6,0-7,2.6-8,6.5c-0.2,0.7-0.4,1.4-0.4,2.2v4.9H171.7z"
		/>
	<path d="M203.6,37.5c0.1,7.1,4.7,10.1,10,10.1c3.8,0,6.1-0.7,8-1.5l0.9,3.8c-1.9,0.8-5,1.8-9.7,1.8c-8.9,0-14.3-5.9-14.3-14.6
		c0-8.8,5.2-15.7,13.6-15.7c9.5,0,12,8.3,12,13.7c0,1.1-0.1,1.9-0.2,2.5L203.6,37.5L203.6,37.5z M219.1,33.7
		c0.1-3.4-1.4-8.6-7.3-8.6c-5.3,0-7.7,4.9-8.1,8.6H219.1z"/>
	<path d="M230,45.7c1.6,1,4.3,2.1,7,2.1c3.8,0,5.6-1.9,5.6-4.3c0-2.5-1.5-3.9-5.4-5.3c-5.2-1.9-7.7-4.7-7.7-8.2
		c0-4.7,3.8-8.5,10-8.5c2.9,0,5.5,0.8,7.1,1.8l-1.3,3.8c-1.1-0.7-3.2-1.7-5.9-1.7c-3.1,0-4.9,1.8-4.9,4c0,2.4,1.7,3.5,5.5,4.9
		c5,1.9,7.6,4.4,7.6,8.8c0,5.1-4,8.7-10.9,8.7c-3.2,0-6.1-0.8-8.2-2L230,45.7z"/>
</g>
<g>
	<path class="st0" d="M44.7,36.1c-2,9.8-11,17.2-21.6,16.6c-10.5-0.6-19-9.3-19.4-19.8c-0.5-11.8,9-21.5,20.7-21.5
		c10.7,0,19.6,6.2,20.6,19.4c0.1,0.8,0.8,1.4,1.6,1.4l0,0c0.9,0,1.6-0.8,1.6-1.7c-1-15.1-12.1-23.4-25.3-22.8
		C10.5,8.3,0.6,18.3,0,30.7c-0.6,13.8,10.4,25.2,24.1,25.2c11.9,0,21.8-8.6,23.8-19.9L44.7,36.1z"/>
	<circle class="st0" cx="24.2" cy="17.6" r="2.2"/>
	<path class="st1" d="M24.2,19.4c-7.2,0-13.2,5.7-13.6,12.8h27.1C37.4,25.1,31.5,19.4,24.2,19.4z M18.6,25.8
		c-1.4,3.2-1.4,4.9-1.4,4.9h-3.3c0,0,0-4.5,3.6-6.9s7.9-2.1,7.9-2.1S20.1,22.7,18.6,25.8z"/>
	<path class="st0" d="M10.9,36c0.9,3.7,3.3,6.8,6.6,8.7h13.3c3.3-1.8,5.7-4.9,6.6-8.6L10.9,36z"/>
</g>
</svg>
